<svg width="17" height="19" viewBox="0 0 17 19" fill="none" xmlns="http://www.w3.org/2000/svg">
<path d="M2.58536 3.27722C2.58536 3.27722 2.98484 2.86704 3.78381 2.04668C4.58277 1.22632 6.12363 0.816135 8.40637 0.816135C10.6891 0.816135 12.6295 1.6365 14.2274 3.27722C15.8253 4.91795 16.6243 6.90822 16.6243 9.24804V15.7967C16.6243 16.5671 16.3532 17.2305 15.811 17.787C15.2689 18.3434 14.6269 18.6216 13.885 18.6216H11.1457V11.0885H14.7838V9.24804C14.7838 7.42184 14.1632 5.87385 12.9219 4.60407C11.6807 3.33429 10.1755 2.6994 8.40637 2.6994C6.63724 2.6994 5.13206 3.33429 3.89081 4.60407C2.64957 5.87385 2.02894 7.42184 2.02894 9.24804V11.0885H5.66708V18.6216H2.92778C2.18588 18.6216 1.54386 18.3434 1.00171 17.787C0.459553 17.2305 0.188477 16.5671 0.188477 15.7967V9.24804C0.188477 6.90822 0.987439 4.91795 2.58536 3.27722Z" fill="black"/>
</svg>
