<svg viewBox="0 0 12 12" fill="none" xmlns="http://www.w3.org/2000/svg">
<g clip-path="url(#clip0_5_4138)">
<path d="M0.954489 3.68076V11.2285H2.9911V3.68076H0.954489ZM7.16767 3.6814C7.87999 3.6814 9.95154 3.97023 9.95154 6.54333V11.2285H7.79422V6.47686C7.79422 5.91978 7.47858 5.5306 6.79521 5.5306C5.6609 5.5306 5.73574 6.47686 5.73574 6.47686V11.2285H3.68819V3.68076H5.73574V4.27772C6.05008 4.03692 6.4219 3.6814 7.16767 3.6814ZM0.932617 1.96536C0.932617 1.39713 1.39363 0.936118 1.96186 0.936118C2.53008 0.936118 2.9911 1.39713 2.9911 1.96536C2.9911 2.53358 2.53008 2.9946 1.96186 2.9946C1.39363 2.9946 0.932617 2.53358 0.932617 1.96536Z" fill="white"/>
</g>
<defs>
<clipPath id="clip0_5_4138">
<rect width="11" height="11" fill="white" transform="matrix(1 0 0 -1 0.921875 11.25)"/>
</clipPath>
</defs>
</svg>
