<svg width="15" height="15" viewBox="0 0 15 15" fill="none" xmlns="http://www.w3.org/2000/svg">
<path d="M14.4176 14.3715L9.96035 9.5085C10.9646 8.45775 11.5166 7.08375 11.5166 5.625C11.5166 4.12275 10.9316 2.70975 9.86885 1.64775C8.8061 0.58575 7.39385 0 5.8916 0C4.38935 0 2.97635 0.585 1.91435 1.64775C0.852352 2.7105 0.266602 4.12275 0.266602 5.625C0.266602 7.12725 0.851602 8.54025 1.91435 9.60225C2.9771 10.6643 4.38935 11.25 5.8916 11.25C7.1861 11.25 8.4131 10.8158 9.4076 10.0162L13.8649 14.8785C13.9391 14.9595 14.0396 15 14.1416 15C14.2324 15 14.3231 14.9677 14.3951 14.9017C14.5481 14.7615 14.5579 14.5245 14.4184 14.3722L14.4176 14.3715ZM1.01585 5.625C1.01585 2.937 3.20285 0.75 5.89085 0.75C8.57885 0.75 10.7659 2.937 10.7659 5.625C10.7659 8.313 8.57885 10.5 5.89085 10.5C3.20285 10.5 1.01585 8.313 1.01585 5.625Z" fill="black"/>
</svg>
