<svg  viewBox="0 0 12 12" fill="none" xmlns="http://www.w3.org/2000/svg">
<g clip-path="url(#clip0_5_4142)">
<path d="M11.0311 1.44382C10.863 1.96873 10.5062 2.41066 10.0409 2.6892C10.4966 2.63495 10.9301 2.51359 11.3343 2.33454C11.0324 2.7859 10.6503 3.18259 10.209 3.49887C10.214 3.59557 10.2159 3.69314 10.2159 3.79049C10.2159 6.76713 7.95028 10.1992 3.80716 10.1992C2.53498 10.1992 1.35135 9.8259 0.354492 9.18713C0.530749 9.20772 0.709794 9.21865 0.891627 9.21865C1.94703 9.21865 2.91859 8.85842 3.68923 8.2546C2.70395 8.23616 1.87219 7.58495 1.58551 6.69015C1.72338 6.71631 1.86404 6.73068 2.00942 6.73068C2.21527 6.73068 2.41426 6.70323 2.60295 6.65177C1.57307 6.44464 0.796422 5.53397 0.796422 4.44298V4.41489C1.10026 4.58364 1.44742 4.68528 1.81666 4.6975C1.21284 4.29417 0.814863 3.60458 0.814863 2.823C0.814863 2.41002 0.925291 2.02298 1.11956 1.69084C2.2305 3.05351 3.89015 3.95045 5.76207 4.04436C5.72369 3.87969 5.70375 3.7075 5.70375 3.53103C5.70375 2.2878 6.71241 1.27914 7.9565 1.27914C8.60406 1.27914 9.18944 1.55232 9.6005 1.9906C10.1136 1.88918 10.5961 1.70177 11.0311 1.44382Z" fill="white"/>
</g>
<defs>
<clipPath id="clip0_5_4142">
<rect width="11" height="11" fill="white" transform="matrix(1 0 0 -1 0.34375 11.25)"/>
</clipPath>
</defs>
</svg>
